<?xml version="1.0" encoding="utf-8"?>
<!-- Generator: Adobe Illustrator 16.0.4, SVG Export Plug-In . SVG Version: 6.00 Build 0)  -->
<!DOCTYPE svg PUBLIC "-//W3C//DTD SVG 1.1//EN" "http://www.w3.org/Graphics/SVG/1.1/DTD/svg11.dtd">
<svg version="1.1" id="Layer_1" xmlns="http://www.w3.org/2000/svg" xmlns:xlink="http://www.w3.org/1999/xlink" x="0px" y="0px"
	 width="612px" height="792px" viewBox="0 0 612 792" enable-background="new 0 0 612 792" xml:space="preserve">
<g>
	<g>
		<path fill="#FEFDFD" d="M56,580c0-170.668,0-341.332,0-512c170.666,0,341.334,0,512,0c0,170.668,0,341.332,0,512
			C397.334,580,226.666,580,56,580z M310.549,564.059c116.902,7.754,241.602-95.5,241.264-239.586
			C551.504,192.316,443.814,84.477,311.5,84.211C181.332,83.953,76.291,189.715,70.807,315.438
			C64.535,459.18,191.74,572.574,310.549,564.059z"/>
		<path fill-rule="evenodd" clip-rule="evenodd" fill="#FE8457" d="M310.549,564.059C191.74,572.574,64.535,459.18,70.807,315.438
			C76.291,189.715,181.332,83.953,311.5,84.211c132.314,0.266,240.004,108.105,240.312,240.262
			C552.15,468.559,427.451,571.812,310.549,564.059z M311.072,540.406c118.35-0.059,215.713-96.727,216.01-214.465
			c0.299-118.352-97.43-216.484-216.121-217.012C192.613,108.398,95.354,206.445,95.6,326.031
			C95.842,444.438,192.361,540.465,311.072,540.406z"/>
		<path fill-rule="evenodd" clip-rule="evenodd" fill="#FEFBFA" d="M311.072,540.406C192.361,540.465,95.842,444.438,95.6,326.031
			c-0.246-119.586,97.014-217.633,215.361-217.102c118.691,0.527,216.42,98.66,216.121,217.012
			C526.785,443.68,429.422,540.348,311.072,540.406z M477.305,326.535c0.008-91.238-73.709-165.242-164.875-165.516
			c-90.488-0.266-164.787,74.457-164.781,165.727c0.008,91.379,73.822,165.289,164.994,165.203
			C404.025,491.863,477.295,418.258,477.305,326.535z"/>
		<path fill-rule="evenodd" clip-rule="evenodd" fill="#FE8052" d="M477.305,326.535c-0.01,91.723-73.279,165.328-164.662,165.414
			c-91.172,0.086-164.986-73.824-164.994-165.203c-0.006-91.27,74.293-165.992,164.781-165.727
			C403.596,161.293,477.312,235.297,477.305,326.535z M377.273,230.73c3.477-27.043,1.596-29.715-28.809-30.902
			c-15.266-0.598-30.777-1.184-45.85,0.762c-52.73,6.809-81.887,53.555-57.16,93.621c8.527,13.816,24.396,23.871,38.482,33.297
			c17.627,11.797,37.295,20.504,55.285,31.809c14.584,9.164,21.736,23.098,18.629,40.887c-3.242,18.547-16.463,28.031-33.264,29.465
			c-16.865,1.438-34.375-0.008-51.092-3.02c-12.32-2.223-23.816-9-37.074-14.305c1.986,14.688-6.887,30.441,13.652,36.605
			c31.398,9.418,62.85,11.84,94.242,1.723c32.32-10.414,49.373-39.352,43.031-71.715c-4.275-21.82-18.85-36.449-36.998-47.355
			c-19.932-11.984-40.723-22.523-60.896-34.117c-15.785-9.07-24.557-22.508-21.643-41.32c2.916-18.828,17.301-28.273,33.531-29.086
			C325.846,225.848,350.58,229.203,377.273,230.73z"/>
		<path fill-rule="evenodd" clip-rule="evenodd" fill="#FEF9F8" d="M377.273,230.73c-26.693-1.527-51.428-4.883-75.932-3.652
			c-16.23,0.812-30.615,10.258-33.531,29.086c-2.914,18.812,5.857,32.25,21.643,41.32c20.174,11.594,40.965,22.133,60.896,34.117
			c18.148,10.906,32.723,25.535,36.998,47.355c6.342,32.363-10.711,61.301-43.031,71.715c-31.393,10.117-62.844,7.695-94.242-1.723
			c-20.539-6.164-11.666-21.918-13.652-36.605c13.258,5.305,24.754,12.082,37.074,14.305c16.717,3.012,34.227,4.457,51.092,3.02
			c16.801-1.434,30.021-10.918,33.264-29.465c3.107-17.789-4.045-31.723-18.629-40.887c-17.99-11.305-37.658-20.012-55.285-31.809
			c-14.086-9.426-29.955-19.48-38.482-33.297c-24.727-40.066,4.43-86.812,57.16-93.621c15.072-1.945,30.584-1.359,45.85-0.762
			C378.869,201.016,380.75,203.688,377.273,230.73z"/>
	</g>
</g>
</svg>
